<?xml version="1.0" encoding="UTF-8"?>
<svg version="1.1" xmlns="http://www.w3.org/2000/svg" width="84" height="86">
<path d="M0 0 C3.52787301 1.95657197 5.70285021 4.10855063 7 8 C7.94558399 16.69937274 4.92358376 25.88380496 -0.125 32.9375 C-6.9114448 40.79018029 -15.84435657 44.5765675 -26 46 C-30.79211983 46.17373244 -33.94289321 45.6827148 -38 43.0625 C-41.11870722 39.84633318 -41.17722955 37.59904558 -41.42578125 33.16796875 C-40.77956265 29.87758962 -39.38014922 28.33393273 -37 26 C-33.72265625 24.77734375 -33.72265625 24.77734375 -30.0625 23.9375 C-25.0756019 22.78011295 -21.59355291 21.75659977 -18 18 C-16.94666323 15.1572871 -16.94666323 15.1572871 -16.5 12.0625 C-15.36502862 6.74434841 -14.35608999 4.23914384 -10 1 C-6.76918255 -0.61540873 -3.49240902 -0.5896275 0 0 Z " fill="#0D0D0D" transform="translate(61,9)"/>
<path d="M0 0 C6.445811 5.74896657 8.64893366 12.08507127 9.25 20.5 C8.97789119 24.30952329 8.26544951 25.97940065 6 29 C5.5875 29.5775 5.175 30.155 4.75 30.75 C1.90429744 32.78264469 -0.55000441 32.883051 -4 33 C-8.15294794 31.48257671 -10.92350676 29.94533716 -13 26 C-13.52873845 23.7861764 -13.96169987 21.56257074 -14.39453125 19.328125 C-15.31776324 15.77814908 -17.0340245 13.08002828 -19 10 C-18.21496094 9.69707031 -17.42992187 9.39414062 -16.62109375 9.08203125 C-10.45391994 6.62272881 -5.20030336 4.13660494 0 0 Z " fill="#0E0E0E" transform="translate(59,47)"/>
<path d="M0 0 C1.05960938 0.47566406 2.11921875 0.95132813 3.2109375 1.44140625 C6.0125068 2.64338805 8.60465131 3.44875267 11.625 3.9375 C15.62914528 4.75062848 18.05890263 6.05890263 21 9 C22.5547669 12.10953379 22.28644437 14.56266761 22 18 C20.27022143 21.39549127 18.93208897 23.42059334 15.6875 25.4375 C12.06099111 26.19653674 9.58424608 25.96006591 6 25 C3.41702219 22.81008403 1.51584156 21.03168312 0 18 C-0.08308638 16.62451844 -0.10736016 15.24514204 -0.09765625 13.8671875 C-0.09443359 13.06152344 -0.09121094 12.25585938 -0.08789062 11.42578125 C-0.07951172 10.58402344 -0.07113281 9.74226563 -0.0625 8.875 C-0.05798828 8.02550781 -0.05347656 7.17601562 -0.04882812 6.30078125 C-0.03702874 4.20049091 -0.01909306 2.1002367 0 0 Z " fill="#111111" transform="translate(20,54)"/>
<path d="M0 0 C2.44597914 1.90242822 3.35040209 2.80586139 4.25 5.75 C4.70208548 10.72294029 4.40736025 13.80329969 1.25 17.75 C-1.6619591 19.48706888 -4.36333936 20.176339 -7.6875 20.75 C-11.27534553 21.37107991 -14.40076999 22.31204794 -17.75 23.75 C-17.8858035 21.03996573 -17.98444624 18.33681059 -18.0625 15.625 C-18.10439453 14.86445313 -18.14628906 14.10390625 -18.18945312 13.3203125 C-18.27919147 9.15645338 -18.04602417 6.56717887 -15.3515625 3.28125 C-10.6265992 -1.31601158 -6.32860353 -2.87663797 0 0 Z " fill="#0D0D0D" transform="translate(37.75,10.25)"/>
</svg>
