<?xml version="1.0" encoding="UTF-8"?>
<svg version="1.1" xmlns="http://www.w3.org/2000/svg" width="92" height="58">
<path d="M0 0 C0 3.3 0 6.6 0 10 C1.29549899 8.90033225 2.58626071 7.79508199 3.875 6.6875 C4.59429687 6.07261719 5.31359375 5.45773438 6.0546875 4.82421875 C8.19179331 2.9587676 8.19179331 2.9587676 10 0 C16.6521397 -1.16148471 23.26250202 -1.11334109 30 -1 C31.23102992 2.69308976 30.87175152 5.88050712 30.5625 9.6875 C30.51029297 10.38939453 30.45808594 11.09128906 30.40429688 11.81445312 C30.27492135 13.54338054 30.13817469 15.27175355 30 17 C33.96 17 37.92 17 42 17 C43.24078003 20.7223401 43.14555459 24.18796033 43.125 28.0625 C43.12886719 28.79533203 43.13273437 29.52816406 43.13671875 30.28320312 C43.12668491 35.74663018 43.12668491 35.74663018 42 38 C35.4 38 28.8 38 22 38 C21.34 35.03 20.68 32.06 20 29 C19.38125 29.66 18.7625 30.32 18.125 31 C16 33 16 33 14 33 C13.690625 33.639375 13.38125 34.27875 13.0625 34.9375 C12 37 12 37 11 38 C9.59651265 38.09860131 8.18819523 38.13078937 6.78125 38.1328125 C5.50701172 38.13474609 5.50701172 38.13474609 4.20703125 38.13671875 C2.86705078 38.13091797 2.86705078 38.13091797 1.5 38.125 C0.60667969 38.12886719 -0.28664062 38.13273437 -1.20703125 38.13671875 C-2.05652344 38.13542969 -2.90601563 38.13414063 -3.78125 38.1328125 C-4.56564453 38.13168457 -5.35003906 38.13055664 -6.15820312 38.12939453 C-8 38 -8 38 -9 37 C-9.45459858 34.34536879 -9.70243238 31.67810862 -10 29 C-10.45375 29.495 -10.9075 29.99 -11.375 30.5 C-13 32 -13 32 -15 32 C-15.433125 32.928125 -15.433125 32.928125 -15.875 33.875 C-17 36 -17 36 -19 38 C-25.21436909 39.3509498 -31.66603732 39.33967623 -38 39 C-40.15498045 36.84501955 -39.32388329 32.27959293 -39.375 29.3125 C-39.41238281 28.50876953 -39.44976562 27.70503906 -39.48828125 26.87695312 C-39.55118769 22.60281032 -39.32688789 19.8251261 -36.6015625 16.41796875 C-34 14 -34 14 -32 14 C-32 13.34 -32 12.68 -32 12 C-30.3203125 10.37890625 -30.3203125 10.37890625 -28.125 8.5625 C-25.53806278 6.41599116 -23.88815626 4.83223438 -22 2 C-21.34 2 -20.68 2 -20 2 C-20 1.34 -20 0.68 -20 0 C-14.58170067 -2.70914967 -5.73625864 -1.27472414 0 0 Z " fill="#F9F9F9" transform="translate(43,7)"/>
<path d="M0 0 C0 5 0 5 -1.4609375 6.5078125 C-2.09257812 7.04148437 -2.72421875 7.57515625 -3.375 8.125 C-4.00148438 8.66382813 -4.62796875 9.20265625 -5.2734375 9.7578125 C-7 11 -7 11 -9 11 C-9 16.61 -9 22.22 -9 28 C0.405 27.505 0.405 27.505 10 27 C9.67 27.66 9.34 28.32 9 29 C2.79980436 30.37782125 -3.67682676 30.33909762 -10 30 C-12.15498045 27.84501955 -11.32388329 23.27959293 -11.375 20.3125 C-11.41238281 19.50876953 -11.44976562 18.70503906 -11.48828125 17.87695312 C-11.55118769 13.60281032 -11.32688789 10.8251261 -8.6015625 7.41796875 C-6 5 -6 5 -4 5 C-4 4.34 -4 3.68 -4 3 C-2 1.375 -2 1.375 0 0 Z " fill="#646464" transform="translate(15,16)"/>
<path d="M0 0 C1.86785156 0.01353516 1.86785156 0.01353516 3.7734375 0.02734375 C5.18496094 0.04474609 5.18496094 0.04474609 6.625 0.0625 C7.85602992 3.75558976 7.49675152 6.94300712 7.1875 10.75 C7.13529297 11.45189453 7.08308594 12.15378906 7.02929688 12.87695312 C6.89992135 14.60588054 6.76317469 16.33425355 6.625 18.0625 C10.585 18.0625 14.545 18.0625 18.625 18.0625 C18.625 18.3925 18.625 18.7225 18.625 19.0625 C14.335 19.0625 10.045 19.0625 5.625 19.0625 C5.625 13.4525 5.625 7.8425 5.625 2.0625 C-3.78 2.5575 -3.78 2.5575 -13.375 3.0625 C-13.375 2.4025 -13.375 1.7425 -13.375 1.0625 C-8.85684719 0.17972245 -4.59987306 -0.04339503 0 0 Z " fill="#7B7B7B" transform="translate(66.375,5.9375)"/>
<path d="M0 0 C0 3.3 0 6.6 0 10 C0.99 9.67 1.98 9.34 3 9 C3 9.66 3 10.32 3 11 C1.68 11.33 0.36 11.66 -1 12 C-1 8.37 -1 4.74 -1 1 C-3.58492789 1.08716617 -6.16647502 1.19405119 -8.75 1.3125 C-9.47960938 1.33505859 -10.20921875 1.35761719 -10.9609375 1.38085938 C-15.20570619 1.59309781 -17.913858 1.97070799 -21 5 C-21.66 4.67 -22.32 4.34 -23 4 C-22.67 3.34 -22.34 2.68 -22 2 C-21.34 2 -20.68 2 -20 2 C-20 1.34 -20 0.68 -20 0 C-14.58170067 -2.70914967 -5.73625864 -1.27472414 0 0 Z " fill="#8F8F8F" transform="translate(43,7)"/>
<path d="M0 0 C0 5 0 5 -1.4609375 6.5078125 C-2.09257812 7.04148437 -2.72421875 7.57515625 -3.375 8.125 C-4.00148438 8.66382813 -4.62796875 9.20265625 -5.2734375 9.7578125 C-7 11 -7 11 -9 11 C-9 16.61 -9 22.22 -9 28 C-9.33 28 -9.66 28 -10 28 C-10.11644156 24.91698584 -10.18732432 21.83453877 -10.25 18.75 C-10.28351562 17.87730469 -10.31703125 17.00460938 -10.3515625 16.10546875 C-10.45054931 9.62183252 -10.45054931 9.62183252 -8.109375 6.390625 C-6 5 -6 5 -4 5 C-4 4.34 -4 3.68 -4 3 C-2 1.375 -2 1.375 0 0 Z " fill="#ACACAC" transform="translate(15,16)"/>
<path d="M0 0 C0.99 0 1.98 0 3 0 C3 3.3 3 6.6 3 10 C8.94 10.33 14.88 10.66 21 11 C21.33 9.68 21.66 8.36 22 7 C22.33 7.99 22.66 8.98 23 10 C22.67 10.66 22.34 11.32 22 12 C15.4 12 8.8 12 2 12 C1.34 8.04 0.68 4.08 0 0 Z " fill="#A8A8A8" transform="translate(63,33)"/>
<path d="M0 0 C0.99 0 1.98 0 3 0 C3 3.63 3 7.26 3 11 C8.94 11 14.88 11 21 11 C21 11.33 21 11.66 21 12 C17.85418577 12.02888514 14.70840531 12.04675923 11.5625 12.0625 C10.21575195 12.07506836 10.21575195 12.07506836 8.84179688 12.08789062 C7.56079102 12.09272461 7.56079102 12.09272461 6.25390625 12.09765625 C5.46314697 12.10289307 4.6723877 12.10812988 3.85766602 12.11352539 C2 12 2 12 1 11 C0.76636119 9.15108054 0.58696365 7.29511969 0.4375 5.4375 C0.35371094 4.42558594 0.26992188 3.41367187 0.18359375 2.37109375 C0.12300781 1.58863281 0.06242187 0.80617187 0 0 Z " fill="#909090" transform="translate(33,33)"/>
<path d="M0 0 C0.99 0 1.98 0 3 0 C3 3.3 3 6.6 3 10 C3.66 10.33 4.32 10.66 5 11 C4.01 11 3.02 11 2 11 C1.34 7.37 0.68 3.74 0 0 Z " fill="#8D8D8D" transform="translate(63,33)"/>
</svg>
